{
	"asset":{
		"generator":"Khronos glTF Blender I/O v4.2.60",
		"version":"2.0"
	},
	"scene":0,
	"scenes":[
		{
			"name":"Scene",
			"nodes":[
				0
			]
		}
	],
	"nodes":[
		{
			"mesh":0,
			"name":"Object_13"
		}
	],
	"materials":[
		{
			"doubleSided":true,
			"name":"mtCafeBrickt_mat",
			"pbrMetallicRoughness":{
				"metallicFactor":0,
				"roughnessFactor":0.6000000238418579
			}
		},
		{
			"doubleSided":true,
			"name":"mtCafeRoof01t_mat",
			"pbrMetallicRoughness":{
				"metallicFactor":0,
				"roughnessFactor":0.6000000238418579
			}
		},
		{
			"doubleSided":true,
			"name":"mtCafeGlass02t_mat",
			"pbrMetallicRoughness":{
				"metallicFactor":0,
				"roughnessFactor":0.6000000238418579
			}
		},
		{
			"doubleSided":true,
			"name":"mtCafeGlasst_mat",
			"pbrMetallicRoughness":{
				"metallicFactor":0,
				"roughnessFactor":0.6000000238418579
			}
		},
		{
			"doubleSided":true,
			"name":"mtCafeTex00t_mat",
			"pbrMetallicRoughness":{
				"metallicFactor":0,
				"roughnessFactor":0.6000000238418579
			}
		},
		{
			"doubleSided":true,
			"name":"mtCafeGrasst_mat",
			"pbrMetallicRoughness":{
				"metallicFactor":0,
				"roughnessFactor":0.6000000238418579
			}
		},
		{
			"doubleSided":true,
			"name":"mtMapShadow00t_mat",
			"pbrMetallicRoughness":{
				"metallicFactor":0,
				"roughnessFactor":0.6000000238418579
			}
		},
		{
			"doubleSided":true,
			"name":"lambert1_mat",
			"pbrMetallicRoughness":{
				"metallicFactor":0,
				"roughnessFactor":0.6000000238418579
			}
		}
	],
	"meshes":[
		{
			"name":"Object_10.001",
			"primitives":[
				{
					"attributes":{
						"POSITION":0,
						"NORMAL":1,
						"TEXCOORD_0":2,
						"COLOR_0":3
					},
					"indices":4,
					"material":0
				},
				{
					"attributes":{
						"POSITION":5,
						"NORMAL":6,
						"TEXCOORD_0":7,
						"COLOR_0":8
					},
					"indices":9,
					"material":1
				},
				{
					"attributes":{
						"POSITION":10,
						"NORMAL":11,
						"TEXCOORD_0":12,
						"COLOR_0":13
					},
					"indices":14,
					"material":2
				},
				{
					"attributes":{
						"POSITION":15,
						"NORMAL":16,
						"TEXCOORD_0":17,
						"COLOR_0":18
					},
					"indices":14,
					"material":3
				},
				{
					"attributes":{
						"POSITION":19,
						"NORMAL":20,
						"TEXCOORD_0":21,
						"COLOR_0":22
					},
					"indices":23,
					"material":4
				},
				{
					"attributes":{
						"POSITION":24,
						"NORMAL":25,
						"TEXCOORD_0":26,
						"COLOR_0":27
					},
					"indices":28,
					"material":5
				},
				{
					"attributes":{
						"POSITION":29,
						"NORMAL":30,
						"TEXCOORD_0":31,
						"COLOR_0":32
					},
					"indices":33,
					"material":6
				},
				{
					"attributes":{
						"POSITION":34,
						"NORMAL":35,
						"TEXCOORD_0":36,
						"COLOR_0":37
					},
					"indices":38,
					"material":7
				}
			]
		}
	],
	"accessors":[
		{
			"bufferView":0,
			"componentType":5126,
			"count":76,
			"max":[
				0.3896588087081909,
				0.03817405179142952,
				0.3502522110939026
			],
			"min":[
				-0.3762952983379364,
				-5.911524070256746e-08,
				-0.3588024079799652
			],
			"type":"VEC3"
		},
		{
			"bufferView":1,
			"componentType":5126,
			"count":76,
			"type":"VEC3"
		},
		{
			"bufferView":2,
			"componentType":5126,
			"count":76,
			"type":"VEC2"
		},
		{
			"bufferView":3,
			"componentType":5126,
			"count":76,
			"type":"VEC3"
		},
		{
			"bufferView":4,
			"componentType":5123,
			"count":204,
			"type":"SCALAR"
		},
		{
			"bufferView":5,
			"componentType":5126,
			"count":198,
			"max":[
				0.36083129048347473,
				0.45221400260925293,
				0.32066288590431213
			],
			"min":[
				-0.36083129048347473,
				0.2107079029083252,
				-0.32066288590431213
			],
			"type":"VEC3"
		},
		{
			"bufferView":6,
			"componentType":5126,
			"count":198,
			"type":"VEC3"
		},
		{
			"bufferView":7,
			"componentType":5126,
			"count":198,
			"type":"VEC2"
		},
		{
			"bufferView":8,
			"componentType":5126,
			"count":198,
			"type":"VEC3"
		},
		{
			"bufferView":9,
			"componentType":5123,
			"count":660,
			"type":"SCALAR"
		},
		{
			"bufferView":10,
			"componentType":5126,
			"count":80,
			"max":[
				0.29292741417884827,
				0.32388609647750854,
				0.28491291403770447
			],
			"min":[
				-0.28744301199913025,
				0,
				-0.17523039877414703
			],
			"type":"VEC3"
		},
		{
			"bufferView":11,
			"componentType":5126,
			"count":80,
			"type":"VEC3"
		},
		{
			"bufferView":12,
			"componentType":5126,
			"count":80,
			"type":"VEC2"
		},
		{
			"bufferView":13,
			"componentType":5126,
			"count":80,
			"type":"VEC3"
		},
		{
			"bufferView":14,
			"componentType":5123,
			"count":120,
			"type":"SCALAR"
		},
		{
			"bufferView":15,
			"componentType":5126,
			"count":80,
			"max":[
				0.29129558801651,
				0.326691210269928,
				0.28912749886512756
			],
			"min":[
				-0.28940778970718384,
				0.00875307060778141,
				-0.17843270301818848
			],
			"type":"VEC3"
		},
		{
			"bufferView":16,
			"componentType":5126,
			"count":80,
			"type":"VEC3"
		},
		{
			"bufferView":17,
			"componentType":5126,
			"count":80,
			"type":"VEC2"
		},
		{
			"bufferView":18,
			"componentType":5126,
			"count":80,
			"type":"VEC3"
		},
		{
			"bufferView":19,
			"componentType":5126,
			"count":346,
			"max":[
				0.3735826015472412,
				0.22155709564685822,
				0.310612291097641
			],
			"min":[
				-0.3120774030685425,
				-0.0020523900166153908,
				-0.27744871377944946
			],
			"type":"VEC3"
		},
		{
			"bufferView":20,
			"componentType":5126,
			"count":346,
			"type":"VEC3"
		},
		{
			"bufferView":21,
			"componentType":5126,
			"count":346,
			"type":"VEC2"
		},
		{
			"bufferView":22,
			"componentType":5126,
			"count":346,
			"type":"VEC3"
		},
		{
			"bufferView":23,
			"componentType":5123,
			"count":882,
			"type":"SCALAR"
		},
		{
			"bufferView":24,
			"componentType":5126,
			"count":244,
			"max":[
				0.3896588087081909,
				0.0701369196176529,
				0.3502522110939026
			],
			"min":[
				-0.3762952983379364,
				0.03817405179142952,
				-0.3588024079799652
			],
			"type":"VEC3"
		},
		{
			"bufferView":25,
			"componentType":5126,
			"count":244,
			"type":"VEC3"
		},
		{
			"bufferView":26,
			"componentType":5126,
			"count":244,
			"type":"VEC2"
		},
		{
			"bufferView":27,
			"componentType":5126,
			"count":244,
			"type":"VEC3"
		},
		{
			"bufferView":28,
			"componentType":5123,
			"count":336,
			"type":"SCALAR"
		},
		{
			"bufferView":29,
			"componentType":5126,
			"count":30,
			"max":[
				0.41578930616378784,
				3.2327269749998777e-09,
				0.390228807926178
			],
			"min":[
				-0.4282296895980835,
				3.2327269749998777e-09,
				-0.39808040857315063
			],
			"type":"VEC3"
		},
		{
			"bufferView":30,
			"componentType":5126,
			"count":30,
			"type":"VEC3"
		},
		{
			"bufferView":31,
			"componentType":5126,
			"count":30,
			"type":"VEC2"
		},
		{
			"bufferView":32,
			"componentType":5126,
			"count":30,
			"type":"VEC3"
		},
		{
			"bufferView":33,
			"componentType":5123,
			"count":90,
			"type":"SCALAR"
		},
		{
			"bufferView":34,
			"componentType":5126,
			"count":60,
			"max":[
				0.3081780970096588,
				0.19236600399017334,
				0.2942099869251251
			],
			"min":[
				-0.3092902898788452,
				0.11245740205049515,
				-0.036581721156835556
			],
			"type":"VEC3"
		},
		{
			"bufferView":35,
			"componentType":5126,
			"count":60,
			"type":"VEC3"
		},
		{
			"bufferView":36,
			"componentType":5126,
			"count":60,
			"type":"VEC2"
		},
		{
			"bufferView":37,
			"componentType":5126,
			"count":60,
			"type":"VEC3"
		},
		{
			"bufferView":38,
			"componentType":5123,
			"count":180,
			"type":"SCALAR"
		}
	],
	"bufferViews":[
		{
			"buffer":0,
			"byteLength":912,
			"byteOffset":0,
			"target":34962
		},
		{
			"buffer":0,
			"byteLength":912,
			"byteOffset":912,
			"target":34962
		},
		{
			"buffer":0,
			"byteLength":608,
			"byteOffset":1824,
			"target":34962
		},
		{
			"buffer":0,
			"byteLength":912,
			"byteOffset":2432,
			"target":34962
		},
		{
			"buffer":0,
			"byteLength":408,
			"byteOffset":3344,
			"target":34963
		},
		{
			"buffer":0,
			"byteLength":2376,
			"byteOffset":3752,
			"target":34962
		},
		{
			"buffer":0,
			"byteLength":2376,
			"byteOffset":6128,
			"target":34962
		},
		{
			"buffer":0,
			"byteLength":1584,
			"byteOffset":8504,
			"target":34962
		},
		{
			"buffer":0,
			"byteLength":2376,
			"byteOffset":10088,
			"target":34962
		},
		{
			"buffer":0,
			"byteLength":1320,
			"byteOffset":12464,
			"target":34963
		},
		{
			"buffer":0,
			"byteLength":960,
			"byteOffset":13784,
			"target":34962
		},
		{
			"buffer":0,
			"byteLength":960,
			"byteOffset":14744,
			"target":34962
		},
		{
			"buffer":0,
			"byteLength":640,
			"byteOffset":15704,
			"target":34962
		},
		{
			"buffer":0,
			"byteLength":960,
			"byteOffset":16344,
			"target":34962
		},
		{
			"buffer":0,
			"byteLength":240,
			"byteOffset":17304,
			"target":34963
		},
		{
			"buffer":0,
			"byteLength":960,
			"byteOffset":17544,
			"target":34962
		},
		{
			"buffer":0,
			"byteLength":960,
			"byteOffset":18504,
			"target":34962
		},
		{
			"buffer":0,
			"byteLength":640,
			"byteOffset":19464,
			"target":34962
		},
		{
			"buffer":0,
			"byteLength":960,
			"byteOffset":20104,
			"target":34962
		},
		{
			"buffer":0,
			"byteLength":4152,
			"byteOffset":21064,
			"target":34962
		},
		{
			"buffer":0,
			"byteLength":4152,
			"byteOffset":25216,
			"target":34962
		},
		{
			"buffer":0,
			"byteLength":2768,
			"byteOffset":29368,
			"target":34962
		},
		{
			"buffer":0,
			"byteLength":4152,
			"byteOffset":32136,
			"target":34962
		},
		{
			"buffer":0,
			"byteLength":1764,
			"byteOffset":36288,
			"target":34963
		},
		{
			"buffer":0,
			"byteLength":2928,
			"byteOffset":38052,
			"target":34962
		},
		{
			"buffer":0,
			"byteLength":2928,
			"byteOffset":40980,
			"target":34962
		},
		{
			"buffer":0,
			"byteLength":1952,
			"byteOffset":43908,
			"target":34962
		},
		{
			"buffer":0,
			"byteLength":2928,
			"byteOffset":45860,
			"target":34962
		},
		{
			"buffer":0,
			"byteLength":672,
			"byteOffset":48788,
			"target":34963
		},
		{
			"buffer":0,
			"byteLength":360,
			"byteOffset":49460,
			"target":34962
		},
		{
			"buffer":0,
			"byteLength":360,
			"byteOffset":49820,
			"target":34962
		},
		{
			"buffer":0,
			"byteLength":240,
			"byteOffset":50180,
			"target":34962
		},
		{
			"buffer":0,
			"byteLength":360,
			"byteOffset":50420,
			"target":34962
		},
		{
			"buffer":0,
			"byteLength":180,
			"byteOffset":50780,
			"target":34963
		},
		{
			"buffer":0,
			"byteLength":720,
			"byteOffset":50960,
			"target":34962
		},
		{
			"buffer":0,
			"byteLength":720,
			"byteOffset":51680,
			"target":34962
		},
		{
			"buffer":0,
			"byteLength":480,
			"byteOffset":52400,
			"target":34962
		},
		{
			"buffer":0,
			"byteLength":720,
			"byteOffset":52880,
			"target":34962
		},
		{
			"buffer":0,
			"byteLength":360,
			"byteOffset":53600,
			"target":34963
		}
	],
	"buffers":[
		{
			"byteLength":53960,
			"uri":"Cafe.bin"
		}
	]
}
